<?xml version="1.0" standalone="no"?>
<!DOCTYPE svg PUBLIC "-//W3C//DTD SVG 20010904//EN"
 "http://www.w3.org/TR/2001/REC-SVG-20010904/DTD/svg10.dtd">
<svg version="1.0" xmlns="http://www.w3.org/2000/svg"
 width="640.000000pt" height="527.000000pt" viewBox="0 0 640.000000 527.000000"
 preserveAspectRatio="xMidYMid meet">
<metadata>
Created by potrace 1.16, written by Peter Selinger 2001-2019
</metadata>
<g transform="translate(0.000000,527.000000) scale(0.100000,-0.100000)"
fill="#000000" stroke="none">
<path d="M3920 4794 c-516 -313 -1005 -611 -1310 -796 -168 -102 -525 -319
-795 -482 -269 -164 -502 -310 -518 -324 -15 -14 -33 -43 -39 -64 -20 -67 -2
-99 145 -258 l135 -146 4 -1155 c4 -1085 5 -1156 22 -1185 10 -16 32 -40 50
-52 l32 -22 1701 0 1700 0 34 23 c74 49 69 -35 67 1184 -3 1085 -3 1092 -24
1119 -11 15 -33 37 -48 48 -27 21 -29 21 -1623 24 l-1596 2 54 39 c30 21 136
86 236 145 483 282 2295 1397 2346 1444 29 26 47 67 47 105 0 51 -163 445
-200 481 -24 25 -39 30 -87 34 l-58 3 -275 -167z m324 49 c-2 -16 -20 -126
-38 -246 -19 -120 -37 -221 -41 -225 -25 -25 -531 -339 -533 -331 -2 5 15 119
39 252 l42 242 261 168 c144 91 264 167 268 167 4 0 5 -12 2 -27z m-944 -580
c-1 -47 -90 -478 -102 -489 -23 -22 -519 -326 -524 -321 -3 2 16 114 41 248
38 204 49 246 66 259 38 28 504 318 512 319 4 1 7 -7 7 -16z m-994 -620 c-3
-16 -21 -120 -41 -233 -20 -113 -40 -214 -44 -225 -8 -19 -528 -362 -536 -353
-7 8 88 504 98 511 397 253 514 327 520 327 5 0 6 -12 3 -27z m314 -1268
l-225 -225 -300 0 -300 0 225 225 225 225 300 0 300 0 -225 -225z m1280 216
c0 -4 -24 -30 -52 -56 -29 -26 -130 -123 -224 -216 l-171 -169 -304 0 -304 0
225 225 225 225 302 0 c167 0 303 -4 303 -9z m985 -53 c-33 -35 -132 -136
-220 -225 l-160 -163 -305 0 -305 0 225 225 225 225 300 0 299 0 -59 -62z m5
-1333 l0 -715 -1545 0 -1545 0 0 708 c0 390 3 712 7 715 3 4 699 7 1545 7
l1538 0 0 -715z"/>
</g>
</svg>
